<?xml version="1.0" encoding="UTF-8"?>
<svg width="256px" height="256px" viewBox="0 0 256 256" version="1.1" xmlns="http://www.w3.org/2000/svg" xmlns:xlink="http://www.w3.org/1999/xlink">
    <g fill="#3182ce">
        <path d="M128,0 C57.28,0 0,57.28 0,128 C0,198.72 57.28,256 128,256 C198.72,256 256,198.72 256,128 C256,57.28 198.72,0 128,0 Z M128,48 C154.51,48 176,69.49 176,96 C176,122.51 154.51,144 128,144 C101.49,144 80,122.51 80,96 C80,69.49 101.49,48 128,48 Z M128,220.8 C96,220.8 67.84,204.16 51.2,179.2 C51.36,153.6 102.4,140 128,140 C153.6,140 204.64,153.6 204.8,179.2 C188.16,204.16 160,220.8 128,220.8 Z"/>
    </g>
</svg>